<mxfile host="app.diagrams.net" agent="Mozilla/5.0 (Windows NT 10.0; Win64; x64) AppleWebKit/537.36 (KHTML, like Gecko) Chrome/137.0.0.0 Safari/537.36" version="27.1.1">
  <diagram name="Trang-1" id="gIVE9Qk2U9_F_q14QSTc">
    <mxGraphModel dx="2074" dy="919" grid="1" gridSize="10" guides="1" tooltips="1" connect="1" arrows="1" fold="1" page="1" pageScale="1" pageWidth="827" pageHeight="1169" math="0" shadow="0">
      <root>
        <mxCell id="0" />
        <mxCell id="1" parent="0" />
        <mxCell id="2xExCwYYJqqlnt8laDMF-1" value="" style="fontColor=#0066CC;verticalAlign=top;verticalLabelPosition=bottom;labelPosition=center;align=center;html=1;outlineConnect=0;fillColor=#CCCCCC;strokeColor=#6881B3;gradientColor=none;gradientDirection=north;strokeWidth=2;shape=mxgraph.networks.virus;" vertex="1" parent="1">
          <mxGeometry x="320" y="251.5" width="50" height="40" as="geometry" />
        </mxCell>
        <mxCell id="2xExCwYYJqqlnt8laDMF-2" value="" style="fillColor=#28A8E0;verticalLabelPosition=bottom;sketch=0;html=1;strokeColor=#ffffff;verticalAlign=top;align=center;points=[[0.145,0.145,0],[0.5,0,0],[0.855,0.145,0],[1,0.5,0],[0.855,0.855,0],[0.5,1,0],[0.145,0.855,0],[0,0.5,0]];pointerEvents=1;shape=mxgraph.cisco_safe.compositeIcon;bgIcon=ellipse;resIcon=mxgraph.cisco_safe.capability.anti_virus;" vertex="1" parent="1">
          <mxGeometry x="510" y="251.5" width="43" height="43" as="geometry" />
        </mxCell>
        <mxCell id="2xExCwYYJqqlnt8laDMF-3" value="" style="sketch=0;pointerEvents=1;shadow=0;dashed=0;html=1;strokeColor=none;fillColor=#505050;labelPosition=center;verticalLabelPosition=bottom;verticalAlign=top;outlineConnect=0;align=center;shape=mxgraph.office.concepts.phishing;" vertex="1" parent="1">
          <mxGeometry x="139" y="251.5" width="59" height="47" as="geometry" />
        </mxCell>
        <mxCell id="2xExCwYYJqqlnt8laDMF-4" value="" style="endArrow=classic;html=1;rounded=0;entryX=0.085;entryY=0.5;entryDx=0;entryDy=0;entryPerimeter=0;" edge="1" parent="1" source="2xExCwYYJqqlnt8laDMF-3" target="2xExCwYYJqqlnt8laDMF-1">
          <mxGeometry width="50" height="50" relative="1" as="geometry">
            <mxPoint x="440" y="360" as="sourcePoint" />
            <mxPoint x="490" y="310" as="targetPoint" />
          </mxGeometry>
        </mxCell>
      </root>
    </mxGraphModel>
  </diagram>
</mxfile>
